<mxfile host="app.diagrams.net" modified="2023-10-05T10:42:50.844Z" agent="Mozilla/5.0 (Windows NT 10.0; Win64; x64) AppleWebKit/537.36 (KHTML, like Gecko) Chrome/117.0.0.0 Safari/537.36" etag="xrS1duIS7yGm7XKiYL7J" version="22.0.2" type="device">
  <diagram name="Page-1" id="18RCpPegmgwXtoHfg7mD">
    <mxGraphModel dx="1050" dy="534" grid="1" gridSize="10" guides="1" tooltips="1" connect="1" arrows="1" fold="1" page="1" pageScale="1" pageWidth="850" pageHeight="1100" math="0" shadow="0">
      <root>
        <mxCell id="0" />
        <mxCell id="1" parent="0" />
        <mxCell id="6Vjcaq0sglPtdgRzM3kA-1" value="University" style="swimlane;fontStyle=0;childLayout=stackLayout;horizontal=1;startSize=30;horizontalStack=0;resizeParent=1;resizeParentMax=0;resizeLast=0;collapsible=1;marginBottom=0;whiteSpace=wrap;html=1;" vertex="1" parent="1">
          <mxGeometry x="50" y="70" width="140" height="90" as="geometry" />
        </mxCell>
        <mxCell id="6Vjcaq0sglPtdgRzM3kA-2" value="- name" style="text;strokeColor=none;fillColor=none;align=left;verticalAlign=middle;spacingLeft=4;spacingRight=4;overflow=hidden;points=[[0,0.5],[1,0.5]];portConstraint=eastwest;rotatable=0;whiteSpace=wrap;html=1;" vertex="1" parent="6Vjcaq0sglPtdgRzM3kA-1">
          <mxGeometry y="30" width="140" height="30" as="geometry" />
        </mxCell>
        <mxCell id="6Vjcaq0sglPtdgRzM3kA-38" value="" style="edgeStyle=entityRelationEdgeStyle;fontSize=12;html=1;endArrow=ERoneToMany;rounded=0;entryX=0.543;entryY=1.067;entryDx=0;entryDy=0;entryPerimeter=0;" edge="1" parent="6Vjcaq0sglPtdgRzM3kA-1" target="6Vjcaq0sglPtdgRzM3kA-3">
          <mxGeometry width="100" height="100" relative="1" as="geometry">
            <mxPoint x="80" y="160" as="sourcePoint" />
            <mxPoint x="180" y="60" as="targetPoint" />
          </mxGeometry>
        </mxCell>
        <mxCell id="6Vjcaq0sglPtdgRzM3kA-3" value="- departments" style="text;strokeColor=none;fillColor=none;align=left;verticalAlign=middle;spacingLeft=4;spacingRight=4;overflow=hidden;points=[[0,0.5],[1,0.5]];portConstraint=eastwest;rotatable=0;whiteSpace=wrap;html=1;" vertex="1" parent="6Vjcaq0sglPtdgRzM3kA-1">
          <mxGeometry y="60" width="140" height="30" as="geometry" />
        </mxCell>
        <mxCell id="6Vjcaq0sglPtdgRzM3kA-11" value="Department" style="swimlane;fontStyle=0;childLayout=stackLayout;horizontal=1;startSize=26;horizontalStack=0;resizeParent=1;resizeParentMax=0;resizeLast=0;collapsible=1;marginBottom=0;align=center;fontSize=14;" vertex="1" parent="1">
          <mxGeometry x="260" y="80" width="160" height="56" as="geometry" />
        </mxCell>
        <mxCell id="6Vjcaq0sglPtdgRzM3kA-12" value="- name" style="text;strokeColor=none;fillColor=none;spacingLeft=4;spacingRight=4;overflow=hidden;rotatable=0;points=[[0,0.5],[1,0.5]];portConstraint=eastwest;fontSize=12;whiteSpace=wrap;html=1;" vertex="1" parent="6Vjcaq0sglPtdgRzM3kA-11">
          <mxGeometry y="26" width="160" height="30" as="geometry" />
        </mxCell>
        <mxCell id="6Vjcaq0sglPtdgRzM3kA-15" value="Offices" style="swimlane;fontStyle=0;childLayout=stackLayout;horizontal=1;startSize=26;horizontalStack=0;resizeParent=1;resizeParentMax=0;resizeLast=0;collapsible=1;marginBottom=0;align=center;fontSize=14;" vertex="1" parent="1">
          <mxGeometry x="550" y="100" width="160" height="70" as="geometry" />
        </mxCell>
        <mxCell id="6Vjcaq0sglPtdgRzM3kA-16" value="- name&amp;nbsp;&lt;br&gt;- ID&lt;br&gt;" style="text;strokeColor=none;fillColor=none;spacingLeft=4;spacingRight=4;overflow=hidden;rotatable=0;points=[[0,0.5],[1,0.5]];portConstraint=eastwest;fontSize=12;whiteSpace=wrap;html=1;" vertex="1" parent="6Vjcaq0sglPtdgRzM3kA-15">
          <mxGeometry y="26" width="160" height="44" as="geometry" />
        </mxCell>
        <mxCell id="6Vjcaq0sglPtdgRzM3kA-19" value="" style="edgeStyle=entityRelationEdgeStyle;fontSize=12;html=1;endArrow=ERoneToMany;rounded=0;entryX=0;entryY=0.5;entryDx=0;entryDy=0;" edge="1" parent="1" target="6Vjcaq0sglPtdgRzM3kA-16">
          <mxGeometry width="100" height="100" relative="1" as="geometry">
            <mxPoint x="420" y="120" as="sourcePoint" />
            <mxPoint x="520" y="20" as="targetPoint" />
          </mxGeometry>
        </mxCell>
        <mxCell id="6Vjcaq0sglPtdgRzM3kA-20" value="Person" style="swimlane;fontStyle=0;childLayout=stackLayout;horizontal=1;startSize=26;horizontalStack=0;resizeParent=1;resizeParentMax=0;resizeLast=0;collapsible=1;marginBottom=0;align=center;fontSize=14;" vertex="1" parent="1">
          <mxGeometry x="60" y="230" width="160" height="56" as="geometry" />
        </mxCell>
        <mxCell id="6Vjcaq0sglPtdgRzM3kA-21" value="- ID" style="text;strokeColor=none;fillColor=none;spacingLeft=4;spacingRight=4;overflow=hidden;rotatable=0;points=[[0,0.5],[1,0.5]];portConstraint=eastwest;fontSize=12;whiteSpace=wrap;html=1;" vertex="1" parent="6Vjcaq0sglPtdgRzM3kA-20">
          <mxGeometry y="26" width="160" height="30" as="geometry" />
        </mxCell>
        <mxCell id="6Vjcaq0sglPtdgRzM3kA-24" value="professor" style="swimlane;fontStyle=0;childLayout=stackLayout;horizontal=1;startSize=26;horizontalStack=0;resizeParent=1;resizeParentMax=0;resizeLast=0;collapsible=1;marginBottom=0;align=center;fontSize=14;" vertex="1" parent="1">
          <mxGeometry x="270" y="216" width="160" height="86" as="geometry" />
        </mxCell>
        <mxCell id="6Vjcaq0sglPtdgRzM3kA-25" value="- associate prof" style="text;strokeColor=none;fillColor=none;spacingLeft=4;spacingRight=4;overflow=hidden;rotatable=0;points=[[0,0.5],[1,0.5]];portConstraint=eastwest;fontSize=12;whiteSpace=wrap;html=1;" vertex="1" parent="6Vjcaq0sglPtdgRzM3kA-24">
          <mxGeometry y="26" width="160" height="30" as="geometry" />
        </mxCell>
        <mxCell id="6Vjcaq0sglPtdgRzM3kA-26" value="- assistant prof" style="text;strokeColor=none;fillColor=none;spacingLeft=4;spacingRight=4;overflow=hidden;rotatable=0;points=[[0,0.5],[1,0.5]];portConstraint=eastwest;fontSize=12;whiteSpace=wrap;html=1;" vertex="1" parent="6Vjcaq0sglPtdgRzM3kA-24">
          <mxGeometry y="56" width="160" height="30" as="geometry" />
        </mxCell>
        <mxCell id="6Vjcaq0sglPtdgRzM3kA-28" value="classrooms" style="swimlane;fontStyle=0;childLayout=stackLayout;horizontal=1;startSize=26;horizontalStack=0;resizeParent=1;resizeParentMax=0;resizeLast=0;collapsible=1;marginBottom=0;align=center;fontSize=14;" vertex="1" parent="1">
          <mxGeometry x="460" y="286" width="160" height="86" as="geometry" />
        </mxCell>
        <mxCell id="6Vjcaq0sglPtdgRzM3kA-29" value="- ID" style="text;strokeColor=none;fillColor=none;spacingLeft=4;spacingRight=4;overflow=hidden;rotatable=0;points=[[0,0.5],[1,0.5]];portConstraint=eastwest;fontSize=12;whiteSpace=wrap;html=1;" vertex="1" parent="6Vjcaq0sglPtdgRzM3kA-28">
          <mxGeometry y="26" width="160" height="30" as="geometry" />
        </mxCell>
        <mxCell id="6Vjcaq0sglPtdgRzM3kA-30" value="- number of seats" style="text;strokeColor=none;fillColor=none;spacingLeft=4;spacingRight=4;overflow=hidden;rotatable=0;points=[[0,0.5],[1,0.5]];portConstraint=eastwest;fontSize=12;whiteSpace=wrap;html=1;" vertex="1" parent="6Vjcaq0sglPtdgRzM3kA-28">
          <mxGeometry y="56" width="160" height="30" as="geometry" />
        </mxCell>
        <mxCell id="6Vjcaq0sglPtdgRzM3kA-32" value="" style="edgeStyle=entityRelationEdgeStyle;fontSize=12;html=1;endArrow=ERzeroToMany;startArrow=ERzeroToOne;rounded=0;exitX=0.32;exitY=0.005;exitDx=0;exitDy=0;exitPerimeter=0;entryX=0.573;entryY=1.067;entryDx=0;entryDy=0;entryPerimeter=0;" edge="1" parent="1">
          <mxGeometry width="100" height="100" relative="1" as="geometry">
            <mxPoint x="321.20000000000005" y="215.42999999999995" as="sourcePoint" />
            <mxPoint x="351.68000000000006" y="137.01" as="targetPoint" />
            <Array as="points">
              <mxPoint x="351" y="129" />
            </Array>
          </mxGeometry>
        </mxCell>
        <mxCell id="6Vjcaq0sglPtdgRzM3kA-33" value="Employee" style="swimlane;fontStyle=0;childLayout=stackLayout;horizontal=1;startSize=26;horizontalStack=0;resizeParent=1;resizeParentMax=0;resizeLast=0;collapsible=1;marginBottom=0;align=center;fontSize=14;" vertex="1" parent="1">
          <mxGeometry x="660" y="302" width="160" height="56" as="geometry" />
        </mxCell>
        <mxCell id="6Vjcaq0sglPtdgRzM3kA-34" value="- works" style="text;strokeColor=none;fillColor=none;spacingLeft=4;spacingRight=4;overflow=hidden;rotatable=0;points=[[0,0.5],[1,0.5]];portConstraint=eastwest;fontSize=12;whiteSpace=wrap;html=1;" vertex="1" parent="6Vjcaq0sglPtdgRzM3kA-33">
          <mxGeometry y="26" width="160" height="30" as="geometry" />
        </mxCell>
        <mxCell id="6Vjcaq0sglPtdgRzM3kA-37" value="" style="edgeStyle=entityRelationEdgeStyle;fontSize=12;html=1;endArrow=ERzeroToMany;startArrow=ERzeroToOne;rounded=0;entryX=1.01;entryY=0.053;entryDx=0;entryDy=0;entryPerimeter=0;" edge="1" parent="1" target="6Vjcaq0sglPtdgRzM3kA-16">
          <mxGeometry width="100" height="100" relative="1" as="geometry">
            <mxPoint x="740" y="300" as="sourcePoint" />
            <mxPoint x="790" y="160" as="targetPoint" />
          </mxGeometry>
        </mxCell>
      </root>
    </mxGraphModel>
  </diagram>
</mxfile>
